<svg xmlns="http://www.w3.org/2000/svg" xmlns:xlink="http://www.w3.org/1999/xlink" id="processonSvg1000" viewBox="122.0 121.0 1359.0 385.0" width="1359.0" height="385.0"><defs id="ProcessOnDefs1001"><marker id="ProcessOnMarker1019" markerUnits="userSpaceOnUse" orient="auto" markerWidth="16.23606797749979" markerHeight="10.550836550532098" viewBox="-1.0 -1.3763819204711736 16.23606797749979 10.550836550532098" refX="-1.0" refY="3.8990363547948754"><path id="ProcessOnPath1020" d="M12.0 3.8990363547948754L0.0 7.798072709589751V0.0Z" stroke="#323232" stroke-width="2.0" fill="#fff" transform="matrix(1.0,0.0,0.0,1.0,0.0,0.0)"/></marker><marker id="ProcessOnMarker1023" markerUnits="userSpaceOnUse" orient="auto" markerWidth="16.23606797749979" markerHeight="10.550836550532098" viewBox="-1.0 -1.3763819204711736 16.23606797749979 10.550836550532098" refX="-1.0" refY="3.8990363547948754"><path id="ProcessOnPath1024" d="M12.0 3.8990363547948754L0.0 7.798072709589751V0.0Z" stroke="#323232" stroke-width="2.0" fill="#fff" transform="matrix(1.0,0.0,0.0,1.0,0.0,0.0)"/></marker><marker id="ProcessOnMarker1042" markerUnits="userSpaceOnUse" orient="auto" markerWidth="16.23606797749979" markerHeight="10.550836550532098" viewBox="-1.0 -1.3763819204711736 16.23606797749979 10.550836550532098" refX="-1.0" refY="3.8990363547948754"><path id="ProcessOnPath1043" d="M12.0 3.8990363547948754L0.0 7.798072709589751V0.0Z" stroke="#323232" stroke-width="2.0" fill="#fff" transform="matrix(1.0,0.0,0.0,1.0,0.0,0.0)"/></marker><marker id="ProcessOnMarker1046" markerUnits="userSpaceOnUse" orient="auto" markerWidth="16.23606797749979" markerHeight="10.550836550532098" viewBox="-1.0 -1.3763819204711736 16.23606797749979 10.550836550532098" refX="-1.0" refY="3.8990363547948754"><path id="ProcessOnPath1047" d="M12.0 3.8990363547948754L0.0 7.798072709589751V0.0Z" stroke="#323232" stroke-width="2.0" fill="#fff" transform="matrix(1.0,0.0,0.0,1.0,0.0,0.0)"/></marker><marker id="ProcessOnMarker1054" markerUnits="userSpaceOnUse" orient="auto" markerWidth="14.289086868996552" markerHeight="19.055054660878554" viewBox="-0.5877852522924731 -0.8090169943749475 14.289086868996552 19.055054660878554" refX="12.0" refY="8.71851033606433"><path id="ProcessOnPath1055" d="M0 0L12.0 8.71851033606433L0 17.43702067212866" stroke="#323232" stroke-width="2.0" fill="none" transform="matrix(1.0,0.0,0.0,1.0,0.0,0.0)"/></marker><marker id="ProcessOnMarker1061" markerUnits="userSpaceOnUse" orient="auto" markerWidth="14.289086868996552" markerHeight="19.055054660878554" viewBox="-0.5877852522924731 -0.8090169943749475 14.289086868996552 19.055054660878554" refX="12.0" refY="8.71851033606433"><path id="ProcessOnPath1062" d="M0 0L12.0 8.71851033606433L0 17.43702067212866" stroke="#323232" stroke-width="2.0" fill="none" transform="matrix(1.0,0.0,0.0,1.0,0.0,0.0)"/></marker><marker id="ProcessOnMarker1080" markerUnits="userSpaceOnUse" orient="auto" markerWidth="14.289086868996552" markerHeight="19.055054660878554" viewBox="-0.5877852522924731 -0.8090169943749475 14.289086868996552 19.055054660878554" refX="1.1135163644116066" refY="8.71851033606433"><path id="ProcessOnPath1081" d="M0 0L12.0 8.71851033606433L0 17.43702067212866" stroke="#323232" stroke-width="2.0" fill="none" transform="matrix(-1.0,1.2246467991473532E-16,-1.2246467991473532E-16,-1.0,13.113516364411606,17.43702067212866)"/></marker><marker id="ProcessOnMarker1084" markerUnits="userSpaceOnUse" orient="auto" markerWidth="14.289086868996552" markerHeight="19.055054660878554" viewBox="-0.5877852522924731 -0.8090169943749475 14.289086868996552 19.055054660878554" refX="1.1135163644116066" refY="8.71851033606433"><path id="ProcessOnPath1085" d="M0 0L12.0 8.71851033606433L0 17.43702067212866" stroke="#323232" stroke-width="2.0" fill="none" transform="matrix(-1.0,1.2246467991473532E-16,-1.2246467991473532E-16,-1.0,13.113516364411606,17.43702067212866)"/></marker><marker id="ProcessOnMarker1100" markerUnits="userSpaceOnUse" orient="auto" markerWidth="14.289086868996552" markerHeight="19.055054660878554" viewBox="-0.5877852522924731 -0.8090169943749475 14.289086868996552 19.055054660878554" refX="1.1135163644116066" refY="8.71851033606433"><path id="ProcessOnPath1101" d="M0 0L12.0 8.71851033606433L0 17.43702067212866" stroke="#323232" stroke-width="2.0" fill="none" transform="matrix(-1.0,1.2246467991473532E-16,-1.2246467991473532E-16,-1.0,13.113516364411606,17.43702067212866)"/></marker><marker id="ProcessOnMarker1104" markerUnits="userSpaceOnUse" orient="auto" markerWidth="14.289086868996552" markerHeight="19.055054660878554" viewBox="-0.5877852522924731 -0.8090169943749475 14.289086868996552 19.055054660878554" refX="1.1135163644116066" refY="8.71851033606433"><path id="ProcessOnPath1105" d="M0 0L12.0 8.71851033606433L0 17.43702067212866" stroke="#323232" stroke-width="2.0" fill="none" transform="matrix(-1.0,1.2246467991473532E-16,-1.2246467991473532E-16,-1.0,13.113516364411606,17.43702067212866)"/></marker><marker id="ProcessOnMarker1112" markerUnits="userSpaceOnUse" orient="auto" markerWidth="16.23606797749979" markerHeight="10.550836550532098" viewBox="-1.0 -1.3763819204711736 16.23606797749979 10.550836550532098" refX="15.23606797749979" refY="3.8990363547948754"><path id="ProcessOnPath1113" d="M12.0 3.8990363547948754L0.0 7.798072709589751V0.0Z" stroke="#323232" stroke-width="2.0" fill="#fff" transform="matrix(-1.0,1.2246467991473532E-16,-1.2246467991473532E-16,-1.0,14.23606797749979,7.798072709589751)"/></marker><marker id="ProcessOnMarker1116" markerUnits="userSpaceOnUse" orient="auto" markerWidth="16.23606797749979" markerHeight="10.550836550532098" viewBox="-1.0 -1.3763819204711736 16.23606797749979 10.550836550532098" refX="15.23606797749979" refY="3.8990363547948754"><path id="ProcessOnPath1117" d="M12.0 3.8990363547948754L0.0 7.798072709589751V0.0Z" stroke="#323232" stroke-width="2.0" fill="#fff" transform="matrix(-1.0,1.2246467991473532E-16,-1.2246467991473532E-16,-1.0,14.23606797749979,7.798072709589751)"/></marker><marker id="ProcessOnMarker1127" markerUnits="userSpaceOnUse" orient="auto" markerWidth="16.23606797749979" markerHeight="10.550836550532098" viewBox="-1.0 -1.3763819204711736 16.23606797749979 10.550836550532098" refX="-1.0" refY="3.8990363547948754"><path id="ProcessOnPath1128" d="M12.0 3.8990363547948754L0.0 7.798072709589751V0.0Z" stroke="#323232" stroke-width="2.0" fill="#fff" transform="matrix(1.0,0.0,0.0,1.0,0.0,0.0)"/></marker></defs><g id="ProcessOnG1002"><path id="ProcessOnPath1003" d="M122.0 121.0H1481.0V506.0H122.0V121.0Z" fill="none"/><g id="ProcessOnG1004"><g id="ProcessOnG1005" transform="matrix(1.0,0.0,0.0,1.0,960.0,306.0)" opacity="1.0"><path id="ProcessOnPath1006" d="M0.0 0.0L100.0 0.0L100.0 32.0L0.0 32.0Z" stroke="#323232" stroke-width="2.0" stroke-dasharray="10.0 4.0" opacity="1.0" fill="#ffffff"/><g id="ProcessOnG1007" transform="matrix(1.0,0.0,0.0,1.0,10.0,7.875)"><text id="ProcessOnText1008" fill="#000000" font-size="13" x="39.0" y="13.325" font-family="微软雅黑" font-weight="normal" font-style="normal" text-decoration="none" family="微软雅黑" text-anchor="middle" size="13">鼠标工厂</text></g></g><g id="ProcessOnG1009" transform="matrix(1.0,0.0,0.0,1.0,891.0,454.0)" opacity="1.0"><path id="ProcessOnPath1010" d="M0.0 0.0L100.0 0.0L100.0 32.0L0.0 32.0Z" stroke="#323232" stroke-width="2.0" stroke-dasharray="none" opacity="1.0" fill="#ffffff"/><g id="ProcessOnG1011" transform="matrix(1.0,0.0,0.0,1.0,10.0,7.875)"><text id="ProcessOnText1012" fill="#000000" font-size="13" x="39.0" y="13.325" font-family="微软雅黑" font-weight="normal" font-style="normal" text-decoration="none" family="微软雅黑" text-anchor="middle" size="13">戴尔鼠标</text></g></g><g id="ProcessOnG1013" transform="matrix(1.0,0.0,0.0,1.0,1031.0,454.0)" opacity="1.0"><path id="ProcessOnPath1014" d="M0.0 0.0L100.0 0.0L100.0 32.0L0.0 32.0Z" stroke="#323232" stroke-width="2.0" stroke-dasharray="none" opacity="1.0" fill="#ffffff"/><g id="ProcessOnG1015" transform="matrix(1.0,0.0,0.0,1.0,10.0,7.875)"><text id="ProcessOnText1016" fill="#000000" font-size="13" x="39.0" y="13.325" font-family="微软雅黑" font-weight="normal" font-style="normal" text-decoration="none" family="微软雅黑" text-anchor="middle" size="13">惠普鼠标</text></g></g><g id="ProcessOnG1017"><path id="ProcessOnPath1018" d="M941.0 454.0C941.0 400.0118531527521 1010.0 391.9881468472479 1010.0 353.2360679774998" stroke="#323232" stroke-width="2.0" stroke-dasharray="10.0 4.0" fill="none" marker-end="url(#ProcessOnMarker1019)"/></g><g id="ProcessOnG1021"><path id="ProcessOnPath1022" d="M1081.0 454.0C1081.0 399.5985294316413 1010.0 392.4014705683587 1010.0 353.2360679774998" stroke="#323232" stroke-width="2.0" stroke-dasharray="10.0 4.0" fill="none" marker-end="url(#ProcessOnMarker1023)"/></g><g id="ProcessOnG1025" transform="matrix(1.0,0.0,0.0,1.0,845.0,382.5)" opacity="1.0"><path id="ProcessOnPath1026" d="M0.0 11.0L616.0 11.0" stroke="#323232" stroke-width="2.0" stroke-dasharray="10.0 4.0" opacity="1.0" fill="none"/><path id="ProcessOnPath1027" d="M0.0 0.0L616.0 0.0L616.0 21.0L0.0 21.0Z" stroke="none" stroke-width="0.0" stroke-dasharray="0.0 0.0" opacity="1.0" fill="none"/></g><g id="ProcessOnG1028" transform="matrix(1.0,0.0,0.0,1.0,1260.0,306.0)" opacity="1.0"><path id="ProcessOnPath1029" d="M0.0 0.0L100.0 0.0L100.0 32.0L0.0 32.0Z" stroke="#323232" stroke-width="2.0" stroke-dasharray="10.0 4.0" opacity="1.0" fill="#ffffff"/><g id="ProcessOnG1030" transform="matrix(1.0,0.0,0.0,1.0,10.0,7.875)"><text id="ProcessOnText1031" fill="#000000" font-size="13" x="39.0" y="13.325" font-family="微软雅黑" font-weight="normal" font-style="normal" text-decoration="none" family="微软雅黑" text-anchor="middle" size="13">键盘工厂</text></g></g><g id="ProcessOnG1032" transform="matrix(1.0,0.0,0.0,1.0,1194.0,454.0)" opacity="1.0"><path id="ProcessOnPath1033" d="M0.0 0.0L100.0 0.0L100.0 32.0L0.0 32.0Z" stroke="#323232" stroke-width="2.0" stroke-dasharray="none" opacity="1.0" fill="#ffffff"/><g id="ProcessOnG1034" transform="matrix(1.0,0.0,0.0,1.0,10.0,7.875)"><text id="ProcessOnText1035" fill="#000000" font-size="13" x="39.0" y="13.325" font-family="微软雅黑" font-weight="normal" font-style="normal" text-decoration="none" family="微软雅黑" text-anchor="middle" size="13">戴尔键盘</text></g></g><g id="ProcessOnG1036" transform="matrix(1.0,0.0,0.0,1.0,1334.0,454.0)" opacity="1.0"><path id="ProcessOnPath1037" d="M0.0 0.0L100.0 0.0L100.0 32.0L0.0 32.0Z" stroke="#323232" stroke-width="2.0" stroke-dasharray="none" opacity="1.0" fill="#ffffff"/><g id="ProcessOnG1038" transform="matrix(1.0,0.0,0.0,1.0,10.0,7.875)"><text id="ProcessOnText1039" fill="#000000" font-size="13" x="39.0" y="13.325" font-family="微软雅黑" font-weight="normal" font-style="normal" text-decoration="none" family="微软雅黑" text-anchor="middle" size="13">惠普键盘</text></g></g><g id="ProcessOnG1040"><path id="ProcessOnPath1041" d="M1244.0 454.0C1244.0 400.6153580137508 1310.0 391.3846419862492 1310.0 353.2360679774998" stroke="#323232" stroke-width="2.0" stroke-dasharray="10.0 4.0" fill="none" marker-end="url(#ProcessOnMarker1042)"/></g><g id="ProcessOnG1044"><path id="ProcessOnPath1045" d="M1384.0 454.0C1384.0 398.962558198986 1310.0 393.037441801014 1310.0 353.2360679774998" stroke="#323232" stroke-width="2.0" stroke-dasharray="10.0 4.0" fill="none" marker-end="url(#ProcessOnMarker1046)"/></g><g id="ProcessOnG1048" transform="matrix(1.0,0.0,0.0,1.0,1260.0,141.0)" opacity="1.0"><path id="ProcessOnPath1049" d="M0.0 0.0L100.0 0.0L100.0 32.0L0.0 32.0Z" stroke="#323232" stroke-width="2.0" stroke-dasharray="10.0 4.0" opacity="1.0" fill="#ffffff"/><g id="ProcessOnG1050" transform="matrix(1.0,0.0,0.0,1.0,10.0,7.875)"><text id="ProcessOnText1051" fill="#000000" font-size="13" x="39.0" y="13.325" font-family="微软雅黑" font-weight="normal" font-style="normal" text-decoration="none" family="微软雅黑" text-anchor="middle" size="13">外设工厂</text></g></g><g id="ProcessOnG1052"><path id="ProcessOnPath1053" d="M1153.0 173.0C1153.0 251.11581145965266 1010.0 227.88418854034734 1010.0 306.0" stroke="#323232" stroke-width="2.0" stroke-dasharray="10.0 4.0" fill="none" marker-end="url(#ProcessOnMarker1054)"/><g id="ProcessOnG1056" transform="matrix(1.0,0.0,0.0,1.0,1081.5,231.375)"><path id="ProcessOnPath1057" d="M0 0H78.0V16.25H0Z" fill="#fff" transform="matrix(1.0,0.0,0.0,1.0,-39.0,0.0)"/><text id="ProcessOnText1058" fill="#000000" font-size="13" x="0.0" y="13.325" font-family="微软雅黑" font-weight="normal" font-style="normal" text-decoration="none" family="微软雅黑" text-anchor="middle" size="13">创建鼠标工厂</text></g></g><g id="ProcessOnG1059"><path id="ProcessOnPath1060" d="M1153.0 173.0C1153.0 255.30479937403408 1310.0 223.69520062596592 1310.0 306.0" stroke="#323232" stroke-width="2.0" stroke-dasharray="10.0 4.0" fill="none" marker-end="url(#ProcessOnMarker1061)"/><g id="ProcessOnG1063" transform="matrix(1.0,0.0,0.0,1.0,1231.5,231.375)"><path id="ProcessOnPath1064" d="M0 0H78.0V16.25H0Z" fill="#fff" transform="matrix(1.0,0.0,0.0,1.0,-39.0,0.0)"/><text id="ProcessOnText1065" fill="#000000" font-size="13" x="0.0" y="13.325" font-family="微软雅黑" font-weight="normal" font-style="normal" text-decoration="none" family="微软雅黑" text-anchor="middle" size="13">创建键盘工厂</text></g></g><g id="ProcessOnG1066" transform="matrix(1.0,0.0,0.0,1.0,256.0,306.0)" opacity="1.0"><path id="ProcessOnPath1067" d="M0.0 0.0L100.0 0.0L100.0 32.0L0.0 32.0Z" stroke="#323232" stroke-width="2.0" stroke-dasharray="none" opacity="1.0" fill="#ffffff"/><g id="ProcessOnG1068" transform="matrix(1.0,0.0,0.0,1.0,10.0,7.875)"><text id="ProcessOnText1069" fill="#000000" font-size="13" x="39.0" y="13.325" font-family="微软雅黑" font-weight="normal" font-style="normal" text-decoration="none" family="微软雅黑" text-anchor="middle" size="13">戴尔工厂</text></g></g><g id="ProcessOnG1070" transform="matrix(1.0,0.0,0.0,1.0,184.0,454.0)" opacity="1.0"><path id="ProcessOnPath1071" d="M0.0 0.0L100.0 0.0L100.0 32.0L0.0 32.0Z" stroke="#323232" stroke-width="2.0" stroke-dasharray="none" opacity="1.0" fill="#ffffff"/><g id="ProcessOnG1072" transform="matrix(1.0,0.0,0.0,1.0,10.0,7.875)"><text id="ProcessOnText1073" fill="#000000" font-size="13" x="39.0" y="13.325" font-family="微软雅黑" font-weight="normal" font-style="normal" text-decoration="none" family="微软雅黑" text-anchor="middle" size="13">戴尔鼠标</text></g></g><g id="ProcessOnG1074" transform="matrix(1.0,0.0,0.0,1.0,324.0,454.0)" opacity="1.0"><path id="ProcessOnPath1075" d="M0.0 0.0L100.0 0.0L100.0 32.0L0.0 32.0Z" stroke="#323232" stroke-width="2.0" stroke-dasharray="none" opacity="1.0" fill="#ffffff"/><g id="ProcessOnG1076" transform="matrix(1.0,0.0,0.0,1.0,10.0,7.875)"><text id="ProcessOnText1077" fill="#000000" font-size="13" x="39.0" y="13.325" font-family="微软雅黑" font-weight="normal" font-style="normal" text-decoration="none" family="微软雅黑" text-anchor="middle" size="13">戴尔键盘</text></g></g><g id="ProcessOnG1078"><path id="ProcessOnPath1079" d="M234.0 454.0C234.0 399.38864586919675 306.0 392.61135413080325 306.0 338.0" stroke="#323232" stroke-width="2.0" stroke-dasharray="10.0 4.0" fill="none" marker-start="url(#ProcessOnMarker1080)"/></g><g id="ProcessOnG1082"><path id="ProcessOnPath1083" d="M374.0 454.0C374.0 400.21524379529086 306.0 391.78475620470914 306.0 338.0" stroke="#323232" stroke-width="2.0" stroke-dasharray="10.0 4.0" fill="none" marker-start="url(#ProcessOnMarker1084)"/></g><g id="ProcessOnG1086" transform="matrix(1.0,0.0,0.0,1.0,559.0,306.0)" opacity="1.0"><path id="ProcessOnPath1087" d="M0.0 0.0L100.0 0.0L100.0 32.0L0.0 32.0Z" stroke="#323232" stroke-width="2.0" stroke-dasharray="none" opacity="1.0" fill="#ffffff"/><g id="ProcessOnG1088" transform="matrix(1.0,0.0,0.0,1.0,10.0,7.875)"><text id="ProcessOnText1089" fill="#000000" font-size="13" x="39.0" y="13.325" font-family="微软雅黑" font-weight="normal" font-style="normal" text-decoration="none" family="微软雅黑" text-anchor="middle" size="13">惠普工厂</text></g></g><g id="ProcessOnG1090" transform="matrix(1.0,0.0,0.0,1.0,487.0,454.0)" opacity="1.0"><path id="ProcessOnPath1091" d="M0.0 0.0L100.0 0.0L100.0 32.0L0.0 32.0Z" stroke="#323232" stroke-width="2.0" stroke-dasharray="none" opacity="1.0" fill="#ffffff"/><g id="ProcessOnG1092" transform="matrix(1.0,0.0,0.0,1.0,10.0,7.875)"><text id="ProcessOnText1093" fill="#000000" font-size="13" x="39.0" y="13.325" font-family="微软雅黑" font-weight="normal" font-style="normal" text-decoration="none" family="微软雅黑" text-anchor="middle" size="13">惠普鼠标</text></g></g><g id="ProcessOnG1094" transform="matrix(1.0,0.0,0.0,1.0,627.0,454.0)" opacity="1.0"><path id="ProcessOnPath1095" d="M0.0 0.0L100.0 0.0L100.0 32.0L0.0 32.0Z" stroke="#323232" stroke-width="2.0" stroke-dasharray="none" opacity="1.0" fill="#ffffff"/><g id="ProcessOnG1096" transform="matrix(1.0,0.0,0.0,1.0,10.0,7.875)"><text id="ProcessOnText1097" fill="#000000" font-size="13" x="39.0" y="13.325" font-family="微软雅黑" font-weight="normal" font-style="normal" text-decoration="none" family="微软雅黑" text-anchor="middle" size="13">惠普键盘</text></g></g><g id="ProcessOnG1098"><path id="ProcessOnPath1099" d="M537.0 454.0C537.0 399.38864586919675 609.0 392.61135413080325 609.0 338.0" stroke="#323232" stroke-width="2.0" stroke-dasharray="10.0 4.0" fill="none" marker-start="url(#ProcessOnMarker1100)"/></g><g id="ProcessOnG1102"><path id="ProcessOnPath1103" d="M677.0 454.0C677.0 400.21524379529086 609.0 391.78475620470914 609.0 338.0" stroke="#323232" stroke-width="2.0" stroke-dasharray="10.0 4.0" fill="none" marker-start="url(#ProcessOnMarker1104)"/></g><g id="ProcessOnG1106" transform="matrix(1.0,0.0,0.0,1.0,400.0,141.0)" opacity="1.0"><path id="ProcessOnPath1107" d="M0.0 0.0L100.0 0.0L100.0 32.0L0.0 32.0Z" stroke="#323232" stroke-width="2.0" stroke-dasharray="10.0 4.0" opacity="1.0" fill="#ffffff"/><g id="ProcessOnG1108" transform="matrix(1.0,0.0,0.0,1.0,10.0,7.875)"><text id="ProcessOnText1109" fill="#000000" font-size="13" x="39.0" y="13.325" font-family="微软雅黑" font-weight="normal" font-style="normal" text-decoration="none" family="微软雅黑" text-anchor="middle" size="13">外设工厂</text></g></g><g id="ProcessOnG1110"><path id="ProcessOnPath1111" d="M450.0 188.2360679774998C450.0 251.40918313565066 306.0 227.59081686434934 306.0 306.0" stroke="#323232" stroke-width="2.0" stroke-dasharray="10.0 4.0" fill="none" marker-start="url(#ProcessOnMarker1112)"/></g><g id="ProcessOnG1114"><path id="ProcessOnPath1115" d="M450.0 188.2360679774998C450.0 255.91682579549217 609.0 223.08317420450783 609.0 306.0" stroke="#323232" stroke-width="2.0" stroke-dasharray="10.0 4.0" fill="none" marker-start="url(#ProcessOnMarker1116)"/></g><g id="ProcessOnG1118" transform="matrix(1.0,0.0,0.0,1.0,142.0,228.5)" opacity="1.0"><path id="ProcessOnPath1119" d="M0.0 11.0L616.0 11.0" stroke="#323232" stroke-width="2.0" stroke-dasharray="10.0 4.0" opacity="1.0" fill="none"/><path id="ProcessOnPath1120" d="M0.0 0.0L616.0 0.0L616.0 21.0L0.0 21.0Z" stroke="none" stroke-width="0.0" stroke-dasharray="0.0 0.0" opacity="1.0" fill="none"/></g><g id="ProcessOnG1121" transform="matrix(1.0,0.0,0.0,1.0,1103.0,141.0)" opacity="1.0"><path id="ProcessOnPath1122" d="M0.0 0.0L100.0 0.0L100.0 32.0L0.0 32.0Z" stroke="#323232" stroke-width="2.0" stroke-dasharray="none" opacity="1.0" fill="#ffffff"/><g id="ProcessOnG1123" transform="matrix(1.0,0.0,0.0,1.0,10.0,7.875)"><text id="ProcessOnText1124" fill="#000000" font-size="13" x="39.0" y="13.325" font-family="微软雅黑" font-weight="normal" font-style="normal" text-decoration="none" family="微软雅黑" text-anchor="middle" size="13">外设工厂</text></g></g><g id="ProcessOnG1125"><path id="ProcessOnPath1126" d="M1203.0 157.0C1225.8 157.0 1237.2 157.0 1244.7639320225003 157.0" stroke="#323232" stroke-width="2.0" stroke-dasharray="10.0 4.0" fill="none" marker-end="url(#ProcessOnMarker1127)"/></g></g></g></svg>