<svg xmlns="http://www.w3.org/2000/svg" xmlns:xlink="http://www.w3.org/1999/xlink" id="processonSvg1000" viewBox="26.0 121.88888888888891 914.9135802469149 463.2222222222222" width="914.9135802469149" height="463.2222222222222"><defs id="ProcessOnDefs1001"><marker id="ProcessOnMarker1011" markerUnits="userSpaceOnUse" orient="auto" markerWidth="14.289086868996552" markerHeight="19.055054660878554" viewBox="-0.5877852522924731 -0.8090169943749475 14.289086868996552 19.055054660878554" refX="12.0" refY="8.71851033606433"><path id="ProcessOnPath1012" d="M0 0L12.0 8.71851033606433L0 17.43702067212866" stroke="#323232" stroke-width="2.0" fill="none" transform="matrix(1.0,0.0,0.0,1.0,0.0,0.0)"/></marker><marker id="ProcessOnMarker1026" markerUnits="userSpaceOnUse" orient="auto" markerWidth="16.23606797749979" markerHeight="10.550836550532098" viewBox="-1.0 -1.3763819204711736 16.23606797749979 10.550836550532098" refX="-1.0" refY="3.8990363547948754"><path id="ProcessOnPath1027" d="M12.0 3.8990363547948754L0.0 7.798072709589751V0.0Z" stroke="#323232" stroke-width="2.0" fill="#fff" transform="matrix(1.0,0.0,0.0,1.0,0.0,0.0)"/></marker><marker id="ProcessOnMarker1034" markerUnits="userSpaceOnUse" orient="auto" markerWidth="14.289086868996552" markerHeight="19.055054660878554" viewBox="-0.5877852522924731 -0.8090169943749475 14.289086868996552 19.055054660878554" refX="12.0" refY="8.71851033606433"><path id="ProcessOnPath1035" d="M0 0L12.0 8.71851033606433L0 17.43702067212866" stroke="#323232" stroke-width="2.0" fill="none" transform="matrix(1.0,0.0,0.0,1.0,0.0,0.0)"/></marker><marker id="ProcessOnMarker1038" markerUnits="userSpaceOnUse" orient="auto" markerWidth="16.23606797749979" markerHeight="10.550836550532098" viewBox="-1.0 -1.3763819204711736 16.23606797749979 10.550836550532098" refX="-1.0" refY="3.8990363547948754"><path id="ProcessOnPath1039" d="M12.0 3.8990363547948754L0.0 7.798072709589751V0.0Z" stroke="#323232" stroke-width="2.0" fill="#fff" transform="matrix(1.0,0.0,0.0,1.0,0.0,0.0)"/></marker><marker id="ProcessOnMarker1046" markerUnits="userSpaceOnUse" orient="auto" markerWidth="14.289086868996552" markerHeight="19.055054660878554" viewBox="-0.5877852522924731 -0.8090169943749475 14.289086868996552 19.055054660878554" refX="12.0" refY="8.71851033606433"><path id="ProcessOnPath1047" d="M0 0L12.0 8.71851033606433L0 17.43702067212866" stroke="#323232" stroke-width="2.0" fill="none" transform="matrix(1.0,0.0,0.0,1.0,0.0,0.0)"/></marker><marker id="ProcessOnMarker1063" markerUnits="userSpaceOnUse" orient="auto" markerWidth="14.289086868996552" markerHeight="19.055054660878554" viewBox="-0.5877852522924731 -0.8090169943749475 14.289086868996552 19.055054660878554" refX="12.0" refY="8.71851033606433"><path id="ProcessOnPath1064" d="M0 0L12.0 8.71851033606433L0 17.43702067212866" stroke="#323232" stroke-width="2.0" fill="none" transform="matrix(1.0,0.0,0.0,1.0,0.0,0.0)"/></marker></defs><g id="ProcessOnG1002"><path id="ProcessOnPath1003" d="M26.0 121.88888888888891H940.9135802469149V585.1111111111111H26.0V121.88888888888891Z" fill="none"/><g id="ProcessOnG1004"><g id="ProcessOnG1005" transform="matrix(1.0,0.0,0.0,1.0,531.5555555555555,141.8888888888889)" opacity="1.0"><path id="ProcessOnPath1006" d="M0.0 0.0L100.0 0.0L100.0 32.0L0.0 32.0Z" stroke="#323232" stroke-width="2.0" stroke-dasharray="10.0 4.0" opacity="1.0" fill="#ffffff"/><g id="ProcessOnG1007" transform="matrix(1.0,0.0,0.0,1.0,10.0,7.875)"><text id="ProcessOnText1008" fill="#000000" font-size="13" x="39.0" y="13.325" font-family="微软雅黑" font-weight="normal" font-style="normal" text-decoration="none" family="微软雅黑" text-anchor="middle" size="13">地图生成器</text></g></g><g id="ProcessOnG1009"><path id="ProcessOnPath1010" d="M631.5555555555555 157.8888888888889C707.2987654320993 157.8888888888889 745.1703703703712 157.8888888888889 820.9135802469149 157.8888888888889" stroke="#323232" stroke-width="2.0" stroke-dasharray="10.0 4.0" fill="none" marker-end="url(#ProcessOnMarker1011)"/><g id="ProcessOnG1013" transform="matrix(1.0,0.0,0.0,1.0,726.2345679012352,149.7638888888889)"><path id="ProcessOnPath1014" d="M0 0H26.0V16.25H0Z" fill="#fff" transform="matrix(1.0,0.0,0.0,1.0,-13.0,0.0)"/><text id="ProcessOnText1015" fill="#000000" font-size="13" x="0.0" y="13.325" font-family="微软雅黑" font-weight="normal" font-style="normal" text-decoration="none" family="微软雅黑" text-anchor="middle" size="13">生成</text></g></g><g id="ProcessOnG1016" transform="matrix(1.0,0.0,0.0,1.0,820.9135802469149,141.8888888888889)" opacity="1.0"><path id="ProcessOnPath1017" d="M0.0 0.0L100.0 0.0L100.0 32.0L0.0 32.0Z" stroke="#323232" stroke-width="2.0" stroke-dasharray="10.0 4.0" opacity="1.0" fill="#ffffff"/><g id="ProcessOnG1018" transform="matrix(1.0,0.0,0.0,1.0,10.0,7.875)"><text id="ProcessOnText1019" fill="#000000" font-size="13" x="39.0" y="13.325" font-family="微软雅黑" font-weight="normal" font-style="normal" text-decoration="none" family="微软雅黑" text-anchor="middle" size="13">地图</text></g></g><g id="ProcessOnG1020" transform="matrix(1.0,0.0,0.0,1.0,531.5555555555555,296.8888888888889)" opacity="1.0"><path id="ProcessOnPath1021" d="M0.0 0.0L100.0 0.0L100.0 32.0L0.0 32.0Z" stroke="#323232" stroke-width="2.0" stroke-dasharray="none" opacity="1.0" fill="#ffffff"/><g id="ProcessOnG1022" transform="matrix(1.0,0.0,0.0,1.0,10.0,7.875)"><text id="ProcessOnText1023" fill="#000000" font-size="13" x="39.0" y="13.325" font-family="微软雅黑" font-weight="normal" font-style="normal" text-decoration="none" family="微软雅黑" text-anchor="middle" size="13">迷宫生成器</text></g></g><g id="ProcessOnG1024"><path id="ProcessOnPath1025" d="M581.5555555555555 296.8888888888889C581.5555555555555 247.68888888888887 581.5555555555555 223.08888888888896 581.5555555555555 189.12495686638871" stroke="#323232" stroke-width="2.0" stroke-dasharray="10.0 4.0" fill="none" marker-end="url(#ProcessOnMarker1026)"/></g><g id="ProcessOnG1028" transform="matrix(1.0,0.0,0.0,1.0,820.9135802469149,296.8888888888889)" opacity="1.0"><path id="ProcessOnPath1029" d="M0.0 0.0L100.0 0.0L100.0 32.0L0.0 32.0Z" stroke="#323232" stroke-width="2.0" stroke-dasharray="none" opacity="1.0" fill="#ffffff"/><g id="ProcessOnG1030" transform="matrix(1.0,0.0,0.0,1.0,10.0,7.875)"><text id="ProcessOnText1031" fill="#000000" font-size="13" x="39.0" y="13.325" font-family="微软雅黑" font-weight="normal" font-style="normal" text-decoration="none" family="微软雅黑" text-anchor="middle" size="13">迷宫</text></g></g><g id="ProcessOnG1032"><path id="ProcessOnPath1033" d="M631.5555555555555 312.8888888888889C707.2987654320993 312.8888888888889 745.1703703703712 312.8888888888889 820.9135802469149 312.8888888888889" stroke="#323232" stroke-width="2.0" stroke-dasharray="10.0 4.0" fill="none" marker-end="url(#ProcessOnMarker1034)"/></g><g id="ProcessOnG1036"><path id="ProcessOnPath1037" d="M870.9135802469149 296.8888888888889C870.9135802469149 247.68888888888887 870.9135802469149 223.08888888888896 870.9135802469149 189.12495686638871" stroke="#323232" stroke-width="2.0" stroke-dasharray="10.0 4.0" fill="none" marker-end="url(#ProcessOnMarker1038)"/></g><g id="ProcessOnG1040" transform="matrix(1.0,0.0,0.0,1.0,672.5555555555555,389.1111111111111)" opacity="1.0"><path id="ProcessOnPath1041" d="M0.0 4.0Q0.0 0.0 4.0 0.0L96.0 0.0Q100.0 0.0 100.0 4.0L100.0 28.0Q100.0 32.0 96.0 32.0L4.0 32.0Q0.0 32.0 0.0 28.0Z" stroke="#323232" stroke-width="2.0" stroke-dasharray="none" opacity="1.0" fill="#ffffff"/><g id="ProcessOnG1042" transform="matrix(1.0,0.0,0.0,1.0,10.0,7.875)"><text id="ProcessOnText1043" fill="#000000" font-size="13" x="39.0" y="13.325" font-family="微软雅黑" font-weight="normal" font-style="normal" text-decoration="none" family="微软雅黑" text-anchor="middle" size="13">添加高墙</text></g></g><g id="ProcessOnG1044"><path id="ProcessOnPath1045" d="M581.5555555555555 328.8888888888889C581.5555555555555 376.3708048746514 625.073639569793 405.1111111111111 672.5555555555555 405.1111111111111" stroke="#323232" stroke-width="2.0" stroke-dasharray="10.0 4.0" fill="none" marker-end="url(#ProcessOnMarker1046)"/></g><g id="ProcessOnG1048" transform="matrix(1.0,0.0,0.0,1.0,672.5555555555555,461.1111111111111)" opacity="1.0"><path id="ProcessOnPath1049" d="M0.0 4.0Q0.0 0.0 4.0 0.0L96.0 0.0Q100.0 0.0 100.0 4.0L100.0 28.0Q100.0 32.0 96.0 32.0L4.0 32.0Q0.0 32.0 0.0 28.0Z" stroke="#323232" stroke-width="2.0" stroke-dasharray="none" opacity="1.0" fill="#ffffff"/><g id="ProcessOnG1050" transform="matrix(1.0,0.0,0.0,1.0,10.0,7.875)"><text id="ProcessOnText1051" fill="#000000" font-size="13" x="39.0" y="13.325" font-family="微软雅黑" font-weight="normal" font-style="normal" text-decoration="none" family="微软雅黑" text-anchor="middle" size="13">添加通道</text></g></g><g id="ProcessOnG1052" transform="matrix(1.0,0.0,0.0,1.0,672.5555555555555,533.1111111111111)" opacity="1.0"><path id="ProcessOnPath1053" d="M0.0 4.0Q0.0 0.0 4.0 0.0L96.0 0.0Q100.0 0.0 100.0 4.0L100.0 28.0Q100.0 32.0 96.0 32.0L4.0 32.0Q0.0 32.0 0.0 28.0Z" stroke="#323232" stroke-width="2.0" stroke-dasharray="none" opacity="1.0" fill="#ffffff"/><g id="ProcessOnG1054" transform="matrix(1.0,0.0,0.0,1.0,10.0,7.875)"><text id="ProcessOnText1055" fill="#000000" font-size="13" x="39.0" y="13.325" font-family="微软雅黑" font-weight="normal" font-style="normal" text-decoration="none" family="微软雅黑" text-anchor="middle" size="13">换行</text></g></g><g id="ProcessOnG1056"><path id="ProcessOnPath1057" d="M722.5555555555555 493.1111111111111C722.5555555555555 509.1111111111111 722.5555555555555 517.1111111111111 722.5555555555555 533.1111111111111" stroke="#323232" stroke-width="2.0" stroke-dasharray="10.0 4.0" fill="none"/></g><g id="ProcessOnG1058" transform="matrix(1.0,0.0,0.0,1.0,772.5555555555555,389.1111111111111)" opacity="1.0"><path id="ProcessOnPath1059" d="M0.0 176.0Q9.0 176.0 9.0 167.0L9.0 97.0Q9.0 88.0 22.0 88.0Q9.0 88.0 9.0 79.0L9.0 9.0Q9.0 0.0 0.0 0.0" stroke="#323232" stroke-width="2.0" stroke-dasharray="none" opacity="1.0" fill="none"/><path id="ProcessOnPath1060" d="M0.0 0.0L95.88888888888891 0.0L95.88888888888891 176.0L0.0 176.0Z" stroke="none" stroke-width="0.0" stroke-dasharray="none" opacity="1.0" fill="none"/></g><g id="ProcessOnG1061"><path id="ProcessOnPath1062" d="M870.9135802469149 328.8888888888889C870.9135802469149 394.8847709476364 861.4444444444445 477.1111111111111 798.4444444444445 477.1111111111111" stroke="#323232" stroke-width="2.0" stroke-dasharray="10.0 4.0" fill="none" marker-end="url(#ProcessOnMarker1063)"/><g id="ProcessOnG1065" transform="matrix(1.0,0.0,0.0,1.0,858.3040123456797,419.6234557720303)"><path id="ProcessOnPath1066" d="M0 0H26.0V16.25H0Z" fill="#fff" transform="matrix(1.0,0.0,0.0,1.0,-13.0,0.0)"/><text id="ProcessOnText1067" fill="#000000" font-size="13" x="0.0" y="13.325" font-family="微软雅黑" font-weight="normal" font-style="normal" text-decoration="none" family="微软雅黑" text-anchor="middle" size="13">组成</text></g></g><g id="ProcessOnG1068"><path id="ProcessOnPath1069" d="M722.5555555555555 421.1111111111111C722.5555555555555 437.1111111111111 722.5555555555555 445.1111111111111 722.5555555555555 461.1111111111111" stroke="#323232" stroke-width="2.0" stroke-dasharray="10.0 4.0" fill="none"/></g><g id="ProcessOnG1070" transform="matrix(1.0,0.0,0.0,1.0,46.0,190.0)" opacity="1.0"><path id="ProcessOnPath1071" d="M0.0 0.0L420.0 0.0L420.0 256.0L0.0 256.0Z" stroke="#323232" stroke-width="2.0" stroke-dasharray="10.0 4.0" opacity="1.0" fill="#ffffff"/><g id="ProcessOnG1072" transform="matrix(1.0,0.0,0.0,1.0,10.0,119.875)"><text id="ProcessOnText1073" fill="#000000" font-size="13" x="199.0" y="13.325" font-family="微软雅黑" font-weight="normal" font-style="normal" text-decoration="none" family="微软雅黑" text-anchor="middle" size="13">...</text></g></g><g id="ProcessOnG1074" transform="matrix(1.0,0.0,0.0,1.0,46.0,190.0)" opacity="1.0"><path id="ProcessOnPath1075" d="M0.0 0.0L84.0 0.0L84.0 32.0L0.0 32.0Z" stroke="#323232" stroke-width="2.0" stroke-dasharray="none" opacity="1.0" fill="#ffffff"/><g id="ProcessOnG1076" transform="matrix(1.0,0.0,0.0,1.0,10.0,7.875)"><text id="ProcessOnText1077" fill="#000000" font-size="13" x="31.0" y="13.325" font-family="微软雅黑" font-weight="normal" font-style="normal" text-decoration="none" family="微软雅黑" text-anchor="middle" size="13">高墙</text></g></g><g id="ProcessOnG1078" transform="matrix(1.0,0.0,0.0,1.0,130.0,190.0)" opacity="1.0"><path id="ProcessOnPath1079" d="M0.0 0.0L84.0 0.0L84.0 32.0L0.0 32.0Z" stroke="#323232" stroke-width="2.0" stroke-dasharray="2.0 3.0" opacity="1.0" fill="#ffffff"/><g id="ProcessOnG1080" transform="matrix(1.0,0.0,0.0,1.0,10.0,7.875)"><text id="ProcessOnText1081" fill="#000000" font-size="13" x="31.0" y="13.325" font-family="微软雅黑" font-weight="normal" font-style="normal" text-decoration="none" family="微软雅黑" text-anchor="middle" size="13">通道</text></g></g><g id="ProcessOnG1082" transform="matrix(1.0,0.0,0.0,1.0,214.0,190.0)" opacity="1.0"><path id="ProcessOnPath1083" d="M0.0 0.0L84.0 0.0L84.0 32.0L0.0 32.0Z" stroke="#323232" stroke-width="2.0" stroke-dasharray="none" opacity="1.0" fill="#ffffff"/><g id="ProcessOnG1084" transform="matrix(1.0,0.0,0.0,1.0,10.0,7.875)"><text id="ProcessOnText1085" fill="#000000" font-size="13" x="31.0" y="13.325" font-family="微软雅黑" font-weight="normal" font-style="normal" text-decoration="none" family="微软雅黑" text-anchor="middle" size="13">高墙</text></g></g><g id="ProcessOnG1086" transform="matrix(1.0,0.0,0.0,1.0,298.0,190.0)" opacity="1.0"><path id="ProcessOnPath1087" d="M0.0 0.0L84.0 0.0L84.0 32.0L0.0 32.0Z" stroke="#323232" stroke-width="2.0" stroke-dasharray="none" opacity="1.0" fill="#ffffff"/><g id="ProcessOnG1088" transform="matrix(1.0,0.0,0.0,1.0,10.0,7.875)"><text id="ProcessOnText1089" fill="#000000" font-size="13" x="31.0" y="13.325" font-family="微软雅黑" font-weight="normal" font-style="normal" text-decoration="none" family="微软雅黑" text-anchor="middle" size="13">高墙</text></g></g><g id="ProcessOnG1090" transform="matrix(1.0,0.0,0.0,1.0,382.0,190.0)" opacity="1.0"><path id="ProcessOnPath1091" d="M0.0 0.0L84.0 0.0L84.0 32.0L0.0 32.0Z" stroke="#323232" stroke-width="2.0" stroke-dasharray="none" opacity="1.0" fill="#ffffff"/><g id="ProcessOnG1092" transform="matrix(1.0,0.0,0.0,1.0,10.0,7.875)"><text id="ProcessOnText1093" fill="#000000" font-size="13" x="31.0" y="13.325" font-family="微软雅黑" font-weight="normal" font-style="normal" text-decoration="none" family="微软雅黑" text-anchor="middle" size="13">高墙</text></g></g><g id="ProcessOnG1094" transform="matrix(1.0,0.0,0.0,1.0,214.0,222.0)" opacity="1.0"><path id="ProcessOnPath1095" d="M0.0 0.0L84.0 0.0L84.0 32.0L0.0 32.0Z" stroke="#323232" stroke-width="2.0" stroke-dasharray="2.0 3.0" opacity="1.0" fill="#ffffff"/><g id="ProcessOnG1096" transform="matrix(1.0,0.0,0.0,1.0,10.0,7.875)"><text id="ProcessOnText1097" fill="#000000" font-size="13" x="31.0" y="13.325" font-family="微软雅黑" font-weight="normal" font-style="normal" text-decoration="none" family="微软雅黑" text-anchor="middle" size="13">通道</text></g></g><g id="ProcessOnG1098" transform="matrix(1.0,0.0,0.0,1.0,130.0,222.0)" opacity="1.0"><path id="ProcessOnPath1099" d="M0.0 0.0L84.0 0.0L84.0 32.0L0.0 32.0Z" stroke="#323232" stroke-width="2.0" stroke-dasharray="2.0 3.0" opacity="1.0" fill="#ffffff"/><g id="ProcessOnG1100" transform="matrix(1.0,0.0,0.0,1.0,10.0,7.875)"><text id="ProcessOnText1101" fill="#000000" font-size="13" x="31.0" y="13.325" font-family="微软雅黑" font-weight="normal" font-style="normal" text-decoration="none" family="微软雅黑" text-anchor="middle" size="13">通道</text></g></g><g id="ProcessOnG1102" transform="matrix(1.0,0.0,0.0,1.0,46.0,222.0)" opacity="1.0"><path id="ProcessOnPath1103" d="M0.0 0.0L84.0 0.0L84.0 32.0L0.0 32.0Z" stroke="#323232" stroke-width="2.0" stroke-dasharray="2.0 3.0" opacity="1.0" fill="#ffffff"/><g id="ProcessOnG1104" transform="matrix(1.0,0.0,0.0,1.0,10.0,7.875)"><text id="ProcessOnText1105" fill="#000000" font-size="13" x="31.0" y="13.325" font-family="微软雅黑" font-weight="normal" font-style="normal" text-decoration="none" family="微软雅黑" text-anchor="middle" size="13">通道</text></g></g><g id="ProcessOnG1106" transform="matrix(1.0,0.0,0.0,1.0,298.0,222.0)" opacity="1.0"><path id="ProcessOnPath1107" d="M0.0 0.0L84.0 0.0L84.0 32.0L0.0 32.0Z" stroke="#323232" stroke-width="2.0" stroke-dasharray="none" opacity="1.0" fill="#ffffff"/><g id="ProcessOnG1108" transform="matrix(1.0,0.0,0.0,1.0,10.0,7.875)"><text id="ProcessOnText1109" fill="#000000" font-size="13" x="31.0" y="13.325" font-family="微软雅黑" font-weight="normal" font-style="normal" text-decoration="none" family="微软雅黑" text-anchor="middle" size="13">高墙</text></g></g><g id="ProcessOnG1110" transform="matrix(1.0,0.0,0.0,1.0,382.0,222.0)" opacity="1.0"><path id="ProcessOnPath1111" d="M0.0 0.0L84.0 0.0L84.0 32.0L0.0 32.0Z" stroke="#323232" stroke-width="2.0" stroke-dasharray="2.0 3.0" opacity="1.0" fill="#ffffff"/><g id="ProcessOnG1112" transform="matrix(1.0,0.0,0.0,1.0,10.0,7.875)"><text id="ProcessOnText1113" fill="#000000" font-size="13" x="31.0" y="13.325" font-family="微软雅黑" font-weight="normal" font-style="normal" text-decoration="none" family="微软雅黑" text-anchor="middle" size="13">通道</text></g></g></g></g></svg>